<?xml version="1.0" encoding="UTF-8"?>
<svg xmlns="http://www.w3.org/2000/svg" version="1.1" viewBox="0 0 1021.6 1088.4">
  <defs>
    <style>
      .cls-1 {
        isolation: isolate;
      }

      .cls-2 {
        fill: #fff;
      }

      .cls-3 {
        fill: #009444;
      }
    </style>
  </defs>
  <!-- Generator: Adobe Illustrator 28.6.0, SVG Export Plug-In . SVG Version: 1.2.0 Build 709)  -->
  <g>
    <g id="Layer_1">
      <g>
        <path class="cls-2" d="M253.9,866.9c64,66.3,142.7,125.4,233.9,175.8l21.6,11.9,21.6-11.9c91.1-50.4,169.9-109.5,233.9-175.8,66-68.3,118.2-146.2,155.2-231.5,21.9-50.4,38.5-105.9,49.6-165.1,9.7-52.4,15.4-109.9,17-171l.7-23.4L212.1,819.9c13.2,16.1,27.1,31.9,41.8,47Z"/>
        <path class="cls-3" d="M243.4,53.6l-27.7,3.1-9.3,26.2c-14.6,40.8-34.4,75.1-60.9,105.2-24.7,28.2-54.3,51.4-90.2,71l-23.9,13.1.7,27.1c1.6,61.2,7.4,118.7,17,171,5.8,30.8,13.1,60.6,21.7,89.3L789.6,55.3l-14.4-1.6c-176.2-19.7-355.3-19.7-531.8-.1Z"/>
        <path d="M98.8,635.4c28.8,66.3,66.8,128,113.3,184.3L987.3,275.8v-3.8c0,0-23.8-13-23.8-13-35.9-19.7-65.4-42.9-90.1-71-26.3-30-46.3-64.4-60.9-105.2l-9.3-26.2-13.2-1.4L71.2,559.4c7.9,26.5,17.1,51.9,27.6,76Z"/>
        <g>
          <path d="M49.2,470.3c-9.7-52.3-15.5-109.8-17-171l-.7-27.1,23.9-13.1c35.9-19.7,65.4-42.9,90.2-71,26.3-30,46.3-64.4,60.9-105.2l9.3-26.2,27.7-3.1c176.5-19.6,355.6-19.6,532.2,0l14.4,1.6,32.3-22.7h0l-43.8-4.9c-177.6-19.7-360.3-19.7-537.9,0l-43.8,4.9-14.9,41.5c-13.5,37.5-31.7,69.1-55.9,96.7-22.7,25.8-49.8,47.3-83,65.5l-37.6,20.6,1.1,43.1c1.6,62.5,7.5,121.4,17.4,175.1,6.5,34.7,15,68.1,25.1,100.1l22.3-15.7c-9.1-28.5-16.4-58.3-22.2-89.1Z"/>
          <path d="M986.7,299.3c-1.6,61-7.3,118.6-17,171-11.1,59.3-27.7,114.8-49.6,165.1-37,85.2-89.3,163.1-155.2,231.5-64,66.3-142.7,125.4-233.9,175.8l-21.6,11.9-21.6-11.9c-91.1-50.4-169.8-109.5-233.9-175.8-14.7-15.3-28.6-31.1-42-47.1l-21.3,15c14.2,17.3,28.9,34,44.6,50.2,65.8,68.2,146.5,129,240.1,180.5l34.2,18.9,34.2-18.9c93.6-51.7,174.3-112.4,240.1-180.5,68.2-70.6,122.1-151.1,160.3-239.2,22.7-52.1,40-109.7,51.3-170.8,10-53.7,15.9-112.6,17.6-175.1l1.1-42.7-26.5,18.6-.9,23.5Z"/>
          <path d="M98.8,635.4c-10.5-24.2-19.7-49.6-27.7-76l-22.3,15.7c7.7,24.4,16.3,48.2,26.2,70.8,29.4,67.9,68.3,131.1,115.7,188.9l21.3-15c-46.4-56.4-84.5-118.1-113.2-184.4Z"/>
          <path d="M976.1,236.1c-33.2-18.2-60.4-39.6-83-65.5-24.2-27.5-42.4-59.1-55.9-96.7l-14.9-41.5-32.3,22.8,13.2,1.5,9.3,26.2c14.6,40.6,34.6,75.1,60.9,105.2,24.7,28.2,54.1,51.4,90.1,71l23.9,13v3.8c0,0,26.4-18.6,26.4-18.6v-.4l-37.7-20.8Z"/>
        </g>
        <polygon class="cls-2" points="370.8 257.2 264.6 73.4 231.3 73.4 370.8 315.1 510.4 73.4 476.9 73.4 370.8 257.2"/>
        <polygon class="cls-3" points="690.9 799 584.8 615.2 551.4 615.2 690.9 856.9 830.6 615.2 797.1 615.2 690.9 799"/>
        <g class="cls-1">
          <path class="cls-2" d="M127.4,626.8l81.7-56.9,14.7,21.1-51.1,35.6,10.9,15.7,47.4-33,14,20.1-47.4,33,13.5,19.4,52.6-36.6,15.6,22.3-83.2,57.9-68.7-98.7Z"/>
          <path class="cls-2" d="M226.9,557.5l81.7-56.9,14.7,21.1-51.1,35.6,10.9,15.7,47.4-33,14,20.1-47.4,33,13.5,19.4,52.6-36.6,15.6,22.3-83.2,57.9-68.7-98.7Z"/>
          <path class="cls-2" d="M326.2,488.4l40.1-27.9,57.3,49.3-26.4-70.7,40.1-27.9,68.7,98.7-25,17.4-52.4-75.2,33.1,88.6-22.6,15.7-71.6-61.9,52.4,75.2-25,17.4-68.7-98.7Z"/>
          <path class="cls-2" d="M457,397.4l45.3-31.5c8.9-6.2,17-10,24.2-11.4,7.2-1.4,14.1-1.1,20.9.9,6.7,2,13,5.5,18.8,10.4,5.8,4.9,11,10.7,15.7,17.4,7.3,10.5,11.8,19.6,13.5,27,1.6,7.5,1.7,14.7.2,21.6-1.5,6.9-4.3,12.7-8.3,17.4-5.4,6.4-10.9,11.6-16.3,15.3l-45.3,31.5-68.7-98.7ZM503.1,398.5l37.5,53.9,7.5-5.2c6.4-4.4,10.4-8.3,12.1-11.6,1.7-3.3,2.1-7.2,1.2-11.8-.9-4.6-4.1-10.8-9.6-18.7-7.3-10.5-14-16.4-20.1-17.9-6.1-1.5-13.1.5-21,6l-7.6,5.3Z"/>
          <path class="cls-2" d="M565,322.2l30.6-21.3,68.7,98.7-30.6,21.3-68.7-98.7Z"/>
          <path class="cls-2" d="M658.5,257.1l30.6-21.3,37.3,53.6c7.8,11.3,12.8,20.5,14.9,27.8,2.1,7.3,1.5,15-1.7,23.3-3.2,8.3-9.5,15.7-18.9,22.3-10,6.9-18.6,11-26,12.1-7.3,1.1-14.3.1-20.9-3-6.6-3.1-12.8-8.3-18.7-15.5l26.4-24.3c3.1,4.3,5.7,7.3,7.9,8.9,2.2,1.6,4.6,2.5,7.2,2.6,1.8,0,3.7-.7,5.9-2.2,3.4-2.4,5-5.4,4.9-9-.2-3.6-2.3-8.5-6.5-14.5l-42.3-60.8Z"/>
          <path class="cls-2" d="M709.5,221.6l30.5-21.2,26,37.3,6-59.5,40.5-28.2-10.1,62.3,80.4,35.2-37.5,26.1-49-26.1-4.3,27.5,16.8,24.1-30.5,21.2-68.7-98.7Z"/>
        </g>
        <g class="cls-1">
          <path class="cls-3" d="M434.7,864.3v99h-18.2v-64.9c-3,3.4-5.8,6.1-8.6,8.2-2.8,2.1-6.2,4.1-10.4,6v-22.2c6.1-3,10.9-6.5,14.3-10.7,3.4-4.2,6.1-9.3,8-15.4h14.9Z"/>
          <path class="cls-3" d="M455.1,941.4l17.9-3.4c.5,3.8,1.3,6.4,2.4,8,1.1,1.5,2.5,2.3,4.1,2.3,2.9,0,5.2-2.2,6.8-6.6,1.2-3.2,2.1-10.1,2.7-20.5-2.2,3.3-4.4,5.8-6.6,7.3-2.3,1.6-4.9,2.3-7.9,2.3-5.8,0-10.7-3.1-14.7-9.3-4-6.2-6-14-6-23.5s1-12.4,3.1-17.7,4.8-9.3,8.4-12.1c3.6-2.7,8.1-4.1,13.5-4.1s11.7,1.7,15.6,5c3.9,3.3,7.1,8.7,9.4,15.9,2.3,7.3,3.5,16.9,3.5,28.9,0,17.6-2.5,30.5-7.4,38.6-4.9,8.2-11.8,12.3-20.5,12.3s-9.2-.9-12.2-2.7c-3-1.8-5.5-4.4-7.4-7.9-2-3.5-3.5-7.8-4.6-13ZM488.3,898c0-5.3-.9-9.4-2.7-12.4-1.8-3-3.9-4.5-6.5-4.5s-4.4,1.4-6,4.1c-1.6,2.7-2.4,6.8-2.4,12.2s.8,9.6,2.5,12.5c1.6,2.9,3.7,4.3,6.1,4.3s4.6-1.4,6.3-4.2c1.7-2.8,2.5-6.8,2.5-12Z"/>
          <path class="cls-3" d="M515.1,865.9h52.7v18.3c-4.6,6.2-8.4,12.9-11.5,20.1-3.7,8.8-6.7,18.5-8.8,29.3-1.7,8.4-2.9,18.3-3.5,29.7h-18c1.4-15.9,3.6-29.2,6.7-40s7.9-22.3,14.4-34.5h-32.1v-22.8Z"/>
          <path class="cls-3" d="M576.1,941.4l17.9-3.4c.5,3.8,1.3,6.4,2.4,8s2.5,2.3,4.1,2.3c2.9,0,5.2-2.2,6.8-6.6,1.2-3.2,2.1-10.1,2.7-20.5-2.2,3.3-4.4,5.8-6.6,7.3-2.3,1.6-4.9,2.3-7.9,2.3-5.8,0-10.7-3.1-14.7-9.3-4-6.2-6-14-6-23.5s1-12.4,3.1-17.7,4.8-9.3,8.4-12.1,8.1-4.1,13.5-4.1,11.7,1.7,15.6,5c3.9,3.3,7.1,8.7,9.4,15.9,2.3,7.3,3.5,16.9,3.5,28.9,0,17.6-2.5,30.5-7.4,38.6s-11.8,12.3-20.5,12.3-9.2-.9-12.2-2.7c-3-1.8-5.5-4.4-7.4-7.9-2-3.5-3.5-7.8-4.6-13ZM609.3,898c0-5.3-.9-9.4-2.7-12.4-1.8-3-3.9-4.5-6.5-4.5s-4.4,1.4-6,4.1c-1.6,2.7-2.4,6.8-2.4,12.2s.8,9.6,2.5,12.5c1.6,2.9,3.7,4.3,6.1,4.3s4.6-1.4,6.3-4.2c1.7-2.8,2.5-6.8,2.5-12Z"/>
        </g>
      </g>
    </g>
  </g>
</svg>